<svg width="19" height="13" viewBox="0 0 19 13" fill="none" xmlns="http://www.w3.org/2000/svg">
<path d="M17.1696 0.103027H1.90178C1.56434 0.103027 1.24072 0.237075 1.00211 0.475682C0.763503 0.714288 0.629456 1.03791 0.629456 1.37535V11.5539C0.629456 11.8914 0.763503 12.215 1.00211 12.4536C1.24072 12.6922 1.56434 12.8262 1.90178 12.8262H17.1696C17.5071 12.8262 17.8307 12.6922 18.0693 12.4536C18.3079 12.215 18.442 11.8914 18.442 11.5539V1.37535C18.442 1.03791 18.3079 0.714288 18.0693 0.475682C17.8307 0.237075 17.5071 0.103027 17.1696 0.103027ZM15.7701 1.37535L9.5357 5.68852L3.30133 1.37535H15.7701ZM1.90178 11.5539V1.95425L9.17309 6.98629C9.27958 7.06016 9.4061 7.09975 9.5357 7.09975C9.66531 7.09975 9.79182 7.06016 9.89831 6.98629L17.1696 1.95425V11.5539H1.90178Z" fill="white"/>
</svg>
