<svg width="20" height="19" viewBox="0 0 20 19" fill="none" xmlns="http://www.w3.org/2000/svg">
<path d="M15.2125 18.3433C15.0323 18.3428 14.8528 18.323 14.6768 18.2843C11.3268 17.5914 8.24051 15.9665 5.77322 13.5968C3.35858 11.222 1.68389 8.19824 0.95179 4.89149C0.865466 4.47937 0.886653 4.05197 1.01331 3.65041C1.13997 3.24885 1.36785 2.88664 1.675 2.59864L3.81786 0.536137C3.92731 0.432631 4.05736 0.353368 4.19951 0.303521C4.34167 0.253674 4.49274 0.234364 4.64286 0.246852C4.79852 0.263091 4.94873 0.313234 5.08293 0.393755C5.21714 0.474275 5.33207 0.583218 5.41965 0.712923L8.09822 4.67185C8.19867 4.82546 8.24715 5.00726 8.23655 5.19049C8.22594 5.37373 8.15679 5.54871 8.03929 5.68971L6.69465 7.29685C7.23017 8.48209 7.98858 9.55332 8.92858 10.4522C9.86248 11.3837 10.9663 12.1275 12.1804 12.6433L13.8464 11.3201C13.9864 11.2095 14.1566 11.1441 14.3346 11.1326C14.5126 11.1211 14.6899 11.1641 14.8429 11.2558L18.8875 13.8701C19.0263 13.9529 19.1446 14.0661 19.2334 14.2012C19.3222 14.3363 19.3793 14.4897 19.4005 14.65C19.4216 14.8102 19.4062 14.9732 19.3554 15.1267C19.3046 15.2801 19.2197 15.4201 19.1071 15.5361L17.0179 17.604C16.7805 17.8402 16.4988 18.027 16.189 18.1539C15.8792 18.2808 15.5473 18.3452 15.2125 18.3433ZM4.55715 1.30757L2.41429 3.37007C2.2415 3.53107 2.11359 3.73429 2.04314 3.95972C1.97269 4.18515 1.96213 4.42503 2.0125 4.65578C2.69325 7.75871 4.25807 10.5981 6.51786 12.8308C8.83975 15.0602 11.7441 16.5885 14.8964 17.2397C15.135 17.2896 15.3823 17.2795 15.616 17.2103C15.8498 17.1411 16.0627 17.015 16.2357 16.8433L18.325 14.7754L14.4196 12.2522L12.6304 13.6772C12.5619 13.7314 12.4811 13.7681 12.3952 13.7839C12.3093 13.7998 12.2209 13.7944 12.1375 13.7683C10.6518 13.2209 9.30543 12.352 8.19465 11.2236C7.04573 10.1507 6.15391 8.83221 5.58572 7.36649C5.56168 7.27776 5.56088 7.18433 5.5834 7.0952C5.60592 7.00607 5.65099 6.92423 5.71429 6.85756L7.16072 5.12721L4.55715 1.30757Z" fill="white"/>
</svg>
